# xmcd CD database file
#
# Track frame offsets:
#	150
#	29130
#	59299
#	97124
#	139657
#
# Disc length: 2465 seconds
#
# Revision: 0
# Processed by: cddbd v1.5.1PL0 Copyright (c) Steve Scherf et al.
# Submitted via: CDex 1.51
#
DISCID=46099f05
DTITLE=Wes Montgomery - Paris 1965 [CD2]
DYEAR=1965
DGENRE=Jazz
TTITLE0=Four on Six (Montgomery)
TTITLE1=The Girl Next Door (Blane Martin)
TTITLE2=Here's That Rainy Day (Burke/VanHeusen)
TTITLE3='Round Midnight (Hanighen/Monk/Williams)
TTITLE4=Impressions (Coltrane)
EXTD=YEAR: 1965
EXTT0=
EXTT1=
EXTT2=
EXTT3=
EXTT4=
PLAYORDER=
